<svg xmlns="http://www.w3.org/2000/svg" width="290" height="446" viewBox="0 0 290 446">
  <g fill="none">
    <g fill="#EAA63B">
      <path d="M142.67.689L142.67 84.139C142.67 114.469 123.44 141.519 94.8 151.439 91.79 152.489 89.76 155.329 89.76 158.529L89.76 427.189C89.76 429.218 89.43 431.199 88.8 433.058 87.92 435.699 86.43 438.109 84.4 440.128 80.952 443.588 76.35 445.486 71.462 445.486 61.382 445.486 53.172 437.276 53.172 427.186L53.172 158.51C53.172 155.32 51.142 152.47 48.122 151.43 19.492 141.52.252 114.48.252 84.14L.252.69 18.332.69 18.332 89.76C18.332 101.198 27.632 110.498 39.061 110.498 50.493 110.498 59.791 101.198 59.791 89.769 59.791 89.667 59.791 89.569 59.779 89.469L59.779.689 79.841.689 79.841 89.759C79.841 101.197 89.141 110.497 100.57 110.497 112.002 110.497 121.3 101.197 121.3 89.768 121.3 89.666 121.3 89.578 121.29 89.488L121.29.688 142.67.688 142.67.689zM289.75 17.129L289.75 430.051C289.75 438.561 282.389 445.489 273.34 445.489 264.299 445.489 256.94 438.558 256.94 430.051L256.94 282.999C256.94 278.859 253.581 275.499 249.44 275.499L229.309 275.499 253.231 17.819C253.251 17.589 253.26 17.359 253.26 17.129 253.26 8.181 264.299.511 273.34.511 275.488.511 277.537.931 279.42 1.699 285.469 4.149 289.75 10.139 289.75 17.129z"/>
    </g>
    <path fill="#000" d="M88.8,433.058 C87.92,435.699 86.43,438.109 84.4,440.128 C80.952,443.588 76.35,445.486 71.462,445.486 C61.382,445.486 53.172,437.276 53.172,427.186 L53.172,158.51 C53.172,155.32 51.142,152.47 48.122,151.43 C19.492,141.52 0.252,114.48 0.252,84.14 L0.252,0.69 L8.481,0.69 C-6.439,148.5 71.461,125.1 71.461,125.1 C59.139,312.319 71.269,397.01 88.8,433.058 Z" opacity=".3"/>
    <path fill="#EAA63B" d="M142.67,0.689 L142.67,84.139 C142.67,114.469 123.44,141.519 94.8,151.439 C91.79,152.489 89.76,155.329 89.76,158.529 L89.76,427.189 C89.76,429.218 89.43,431.199 88.8,433.058 L81.5,142.496 C153.5,107.496 130.5,0.686 130.5,0.686 L142.67,0.689 L142.67,0.689 Z" opacity=".7"/>
    <polygon fill="#000" points="59.779 89.469 79.84 .689 59.779 .689" opacity=".3"/>
    <path fill="#000" d="M289.75,414.039 L289.75,430.051 C289.75,438.561 282.389,445.489 273.34,445.489 C264.299,445.489 256.94,438.558 256.94,430.051 L256.94,282.999 C256.94,278.859 253.581,275.499 249.44,275.499 L229.309,275.499 L253.231,17.819 C253.251,17.589 253.26,17.359 253.26,17.129 C253.26,8.181 264.299,0.511 273.34,0.511 C275.488,0.511 277.537,0.931 279.42,1.699 C269.071,76.769 238.908,329.959 289.75,414.039 Z" opacity=".3"/>
    <path fill="#EAA63B" d="M289.75,17.129 L289.75,414.039 C269,349.079 279.42,1.699 279.42,1.699 C285.469,4.149 289.75,10.139 289.75,17.129 Z" opacity=".7"/>
  </g>
</svg>
