<svg xmlns="http://www.w3.org/2000/svg" width="59" height="64" viewBox="0 0 59 64">
  <g fill="none" fill-rule="evenodd" transform="translate(0 1)">
    <g stroke="#919191" stroke-linecap="round" stroke-linejoin="round" stroke-width="2" transform="translate(10 16)">
      <polygon points="13.592 28.757 .776 31.997 .776 3.349 13.592 .11"/>
      <polyline points="21.829 2.19 26.405 3.348 26.405 32 13.593 28.761 13.593 .109 17.326 1.057"/>
      <polygon points="39.224 28.757 26.408 31.997 26.408 3.349 39.224 .11"/>
    </g>
    <path fill="#919191" d="M4.13695843,60.265 C4.23962561,60.4656677 4.30495829,60.6593324 4.33295843,60.846 C4.13695745,60.9300004 3.93629279,60.9906665 3.73095843,61.028 C3.52562407,61.0653335 3.30395962,61.084 3.06595843,61.084 C2.70195661,61.084 2.37412655,61.0245006 2.08245843,60.9055 C1.7907903,60.7864994 1.5446261,60.6161678 1.34395843,60.3945 C1.14329076,60.1728322 0.989292298,59.9033349 0.881958428,59.586 C0.774624558,59.2686651 0.720958428,58.9116687 0.720958428,58.515 C0.720958428,58.1136647 0.774624558,57.750835 0.881958428,57.4265 C0.989292298,57.102165 1.14329076,56.8256678 1.34395843,56.597 C1.5446261,56.3683322 1.78962365,56.1921673 2.07895843,56.0685 C2.36829321,55.9448327 2.6926233,55.883 3.05195843,55.883 C3.31795976,55.883 3.54662414,55.9016665 3.73795843,55.939 C3.92929272,55.9763335 4.09962435,56.0206664 4.24895843,56.072 C4.23962505,56.1793339 4.21979191,56.2784995 4.18945843,56.3695 C4.15912494,56.4605005 4.12295864,56.5573328 4.08095843,56.66 C4.01095808,56.6366666 3.94329209,56.6156668 3.87795843,56.597 C3.81262477,56.5783332 3.74262547,56.5620001 3.66795843,56.548 C3.59329139,56.5339999 3.51045888,56.5235 3.41945843,56.5165 C3.32845797,56.5095 3.22462568,56.506 3.10795843,56.506 C2.59928922,56.506 2.20379317,56.6786649 1.92145843,57.024 C1.63912368,57.3693351 1.49795843,57.8663301 1.49795843,58.515 C1.49795843,58.846335 1.5376247,59.1333321 1.61695843,59.376 C1.69629216,59.6186679 1.80829104,59.8193325 1.95295843,59.978 C2.09762582,60.1366675 2.27145741,60.2556663 2.47445843,60.335 C2.67745944,60.4143337 2.90495717,60.454 3.15695843,60.454 C3.35295941,60.454 3.53029097,60.4376668 3.68895843,60.405 C3.84762589,60.3723332 3.99695773,60.325667 4.13695843,60.265 Z M5.41037508,55.869 C5.46170867,55.8596666 5.51887477,55.8526667 5.58187508,55.848 C5.6448754,55.8433333 5.70204149,55.841 5.75337508,55.841 C5.80470867,55.841 5.86187477,55.8433333 5.92487508,55.848 C5.9878754,55.8526667 6.04504149,55.8596666 6.09637508,55.869 L6.09637508,59.915 C6.09637508,60.0456673 6.10804163,60.148333 6.13137508,60.223 C6.15470853,60.297667 6.18620822,60.3548331 6.22587508,60.3945 C6.26554195,60.4341669 6.31220815,60.4598333 6.36587508,60.4715 C6.41954202,60.4831667 6.47670811,60.489 6.53737508,60.489 C6.57937529,60.489 6.62720815,60.4866667 6.68087508,60.482 C6.73454202,60.4773333 6.78004156,60.4703334 6.81737508,60.461 C6.85937529,60.6243342 6.88037508,60.8016657 6.88037508,60.993 C6.81504142,61.0163334 6.73570888,61.0315 6.64237508,61.0385 C6.54904128,61.0455 6.46270881,61.049 6.38337508,61.049 C6.24804107,61.049 6.12204233,61.0326668 6.00537508,61 C5.88870783,60.9673332 5.78604219,60.913667 5.69737508,60.839 C5.60870797,60.764333 5.53870867,60.6640006 5.48737508,60.538 C5.43604149,60.4119994 5.41037508,60.2556676 5.41037508,60.069 L5.41037508,55.869 Z M7.95079174,57.955 L7.49579174,57.955 C7.48645836,57.9176665 7.47945843,57.8745002 7.47479174,57.8255 C7.47012505,57.7764998 7.46779174,57.7286669 7.46779174,57.682 C7.46779174,57.6353331 7.47012505,57.5875002 7.47479174,57.5385 C7.47945843,57.4894998 7.48645836,57.4463335 7.49579174,57.409 L8.62979174,57.409 L8.62979174,61 C8.57845815,61.0093334 8.52129205,61.0163333 8.45829174,61.021 C8.39529142,61.0256667 8.33812533,61.028 8.28679174,61.028 C8.24012484,61.028 8.18529205,61.0256667 8.12229174,61.021 C8.05929142,61.0163333 8.00212533,61.0093334 7.95079174,61 L7.95079174,57.955 Z M7.79679174,56.618 C7.78745836,56.5619997 7.78162508,56.5013337 7.77929174,56.436 C7.77695839,56.3706663 7.77579174,56.3123336 7.77579174,56.261 C7.77579174,56.2096664 7.77695839,56.1513337 7.77929174,56.086 C7.78162508,56.0206663 7.78745836,55.9623336 7.79679174,55.911 C7.85745871,55.9016666 7.92279139,55.8946667 7.99279174,55.89 C8.06279209,55.8853333 8.12345815,55.883 8.17479174,55.883 C8.22612533,55.883 8.28679139,55.8853333 8.35679174,55.89 C8.42679209,55.8946667 8.48979146,55.9016666 8.54579174,55.911 C8.55512512,55.9623336 8.56095839,56.0206663 8.56329174,56.086 C8.56562508,56.1513337 8.56679174,56.2096664 8.56679174,56.261 C8.56679174,56.3123336 8.56562508,56.3706663 8.56329174,56.436 C8.56095839,56.5013337 8.55512512,56.5619997 8.54579174,56.618 C8.48979146,56.6273334 8.42795874,56.6343333 8.36029174,56.639 C8.29262473,56.6436667 8.23312533,56.646 8.18179174,56.646 C8.12579146,56.646 8.06279209,56.6436667 7.99279174,56.639 C7.92279139,56.6343333 7.85745871,56.6273334 7.79679174,56.618 Z M12.3812084,60.377 C12.4185419,60.4423337 12.4512083,60.5239995 12.4792084,60.622 C12.5072085,60.7200005 12.5235417,60.8203328 12.5282084,60.923 C12.2528737,61.0303339 11.9378768,61.084 11.5832084,61.084 C10.9858721,61.084 10.5355432,60.914835 10.2322084,60.5765 C9.92887354,60.238165 9.77720839,59.7820029 9.77720839,59.208 C9.77720839,58.9419987 9.81454135,58.6946678 9.88920839,58.466 C9.96387543,58.2373322 10.0747077,58.0390008 10.2217084,57.871 C10.3687091,57.7029992 10.551874,57.5700005 10.7712084,57.472 C10.9905428,57.3739995 11.2448736,57.325 11.5342084,57.325 C11.7302094,57.325 11.9028743,57.3366665 12.0522084,57.36 C12.2015425,57.3833335 12.3438744,57.4206664 12.4792084,57.472 C12.4792084,57.5513337 12.4687085,57.6434995 12.4477084,57.7485 C12.4267083,57.8535005 12.3975419,57.9456663 12.3602084,58.025 C12.1315406,57.9456663 11.8702099,57.906 11.5762084,57.906 C11.2168733,57.906 10.9485426,58.0249988 10.7712084,58.263 C10.5938742,58.5010012 10.5052084,58.815998 10.5052084,59.208 C10.5052084,59.6560022 10.6055407,59.9838323 10.8062084,60.1915 C11.0068761,60.3991677 11.2822066,60.503 11.6322084,60.503 C11.7722091,60.503 11.9017078,60.4936668 12.0207084,60.475 C12.139709,60.4563332 12.2598745,60.4236669 12.3812084,60.377 Z M13.5356251,55.869 C13.5869586,55.8596666 13.6441247,55.8526667 13.7071251,55.848 C13.7701254,55.8433333 13.8272915,55.841 13.8786251,55.841 C13.9299586,55.841 13.9882914,55.8433333 14.0536251,55.848 C14.1189587,55.8526667 14.1772915,55.8596666 14.2286251,55.869 L14.2286251,61 C14.1772915,61.0093334 14.1189587,61.0163333 14.0536251,61.021 C13.9882914,61.0256667 13.9299586,61.028 13.8786251,61.028 C13.8272915,61.028 13.7701254,61.0256667 13.7071251,61.021 C13.6441247,61.0163333 13.5869586,61.0093334 13.5356251,61 L13.5356251,55.869 Z M14.4176251,59.138 L15.5586251,57.409 C15.619292,57.3996666 15.6799581,57.3926667 15.7406251,57.388 C15.801292,57.3833333 15.8642914,57.381 15.9296251,57.381 C15.9996254,57.381 16.0661247,57.3833333 16.1291251,57.388 C16.1921254,57.3926667 16.2562914,57.3996666 16.3216251,57.409 L15.1806251,59.089 L16.5176251,61 C16.4522914,61.0093334 16.389292,61.0163333 16.3286251,61.021 C16.2679581,61.0256667 16.2049587,61.028 16.1396251,61.028 C16.0742914,61.028 16.0089587,61.0256667 15.9436251,61.021 C15.8782914,61.0163333 15.8129587,61.0093334 15.7476251,61 L14.4176251,59.138 Z M19.4144584,57.962 L18.8684584,57.962 L18.8404584,57.864 L20.0444584,56.52 L20.1004584,56.52 L20.1004584,57.409 L21.0104584,57.409 C21.0291251,57.4883337 21.0384584,57.5769995 21.0384584,57.675 C21.0384584,57.7263336 21.0361251,57.7753331 21.0314584,57.822 C21.0267917,57.8686669 21.0197917,57.9153331 21.0104584,57.962 L20.1004584,57.962 L20.1004584,59.6 C20.1004584,59.796001 20.1086249,59.9523327 20.1249584,60.069 C20.1412918,60.1856673 20.1692915,60.2754997 20.2089584,60.3385 C20.2486252,60.4015003 20.3022914,60.4434999 20.3699584,60.4645 C20.4376254,60.4855001 20.5227912,60.496 20.6254584,60.496 C20.7047921,60.496 20.779458,60.4901667 20.8494584,60.4785 C20.9194587,60.4668333 20.9824581,60.4540001 21.0384584,60.44 C21.0711252,60.5333338 21.0909583,60.6289995 21.0979584,60.727 C21.1049584,60.8250005 21.1084584,60.911333 21.1084584,60.986 C21.0151246,61.0093334 20.9171255,61.0268333 20.8144584,61.0385 C20.7117912,61.0501667 20.6021256,61.056 20.4854584,61.056 C20.1494567,61.056 19.8869593,60.9743341 19.6979584,60.811 C19.5089574,60.6476659 19.4144584,60.3770019 19.4144584,59.999 L19.4144584,57.962 Z M23.473875,61.084 C23.1938736,61.084 22.9488761,61.0361671 22.738875,60.9405 C22.528874,60.8448329 22.3538757,60.7130008 22.213875,60.545 C22.0738743,60.3769992 21.970042,60.1786678 21.902375,59.95 C21.834708,59.7213322 21.800875,59.4740013 21.800875,59.208 C21.800875,58.9419987 21.834708,58.6946678 21.902375,58.466 C21.970042,58.2373322 22.0738743,58.0390008 22.213875,57.871 C22.3538757,57.7029992 22.528874,57.5700005 22.738875,57.472 C22.9488761,57.3739995 23.1938736,57.325 23.473875,57.325 C23.7538764,57.325 23.998874,57.3739995 24.208875,57.472 C24.4188761,57.5700005 24.5938743,57.7029992 24.733875,57.871 C24.8738757,58.0390008 24.977708,58.2373322 25.045375,58.466 C25.113042,58.6946678 25.146875,58.9419987 25.146875,59.208 C25.146875,59.4740013 25.113042,59.7213322 25.045375,59.95 C24.977708,60.1786678 24.8738757,60.3769992 24.733875,60.545 C24.5938743,60.7130008 24.4188761,60.8448329 24.208875,60.9405 C23.998874,61.0361671 23.7538764,61.084 23.473875,61.084 Z M23.473875,60.531 C23.7958766,60.531 24.0338742,60.4143345 24.187875,60.181 C24.3418758,59.9476655 24.418875,59.6233354 24.418875,59.208 C24.418875,58.7926646 24.3418758,58.4695012 24.187875,58.2385 C24.0338742,58.0074988 23.7958766,57.892 23.473875,57.892 C23.1518734,57.892 22.9150424,58.0074988 22.763375,58.2385 C22.6117076,58.4695012 22.535875,58.7926646 22.535875,59.208 C22.535875,59.6233354 22.6117076,59.9476655 22.763375,60.181 C22.9150424,60.4143345 23.1518734,60.531 23.473875,60.531 Z M28.1627083,55.869 C28.2140419,55.8596666 28.271208,55.8526667 28.3342083,55.848 C28.3972086,55.8433333 28.4543747,55.841 28.5057083,55.841 C28.5570419,55.841 28.614208,55.8433333 28.6772083,55.848 C28.7402086,55.8526667 28.7973747,55.8596666 28.8487083,55.869 L28.8487083,59.915 C28.8487083,60.0456673 28.8603749,60.148333 28.8837083,60.223 C28.9070418,60.297667 28.9385415,60.3548331 28.9782083,60.3945 C29.0178752,60.4341669 29.0645414,60.4598333 29.1182083,60.4715 C29.1718753,60.4831667 29.2290414,60.489 29.2897083,60.489 C29.3317085,60.489 29.3795414,60.4866667 29.4332083,60.482 C29.4868753,60.4773333 29.5323748,60.4703334 29.5697083,60.461 C29.6117085,60.6243342 29.6327083,60.8016657 29.6327083,60.993 C29.5673747,61.0163334 29.4880421,61.0315 29.3947083,61.0385 C29.3013745,61.0455 29.2150421,61.049 29.1357083,61.049 C29.0003743,61.049 28.8743756,61.0326668 28.7577083,61 C28.6410411,60.9673332 28.5383754,60.913667 28.4497083,60.839 C28.3610412,60.764333 28.2910419,60.6640006 28.2397083,60.538 C28.1883747,60.4119994 28.1627083,60.2556676 28.1627083,60.069 L28.1627083,55.869 Z M31.949125,61.084 C31.6691236,61.084 31.424126,61.0361671 31.214125,60.9405 C31.0041239,60.8448329 30.8291257,60.7130008 30.689125,60.545 C30.5491243,60.3769992 30.445292,60.1786678 30.377625,59.95 C30.309958,59.7213322 30.276125,59.4740013 30.276125,59.208 C30.276125,58.9419987 30.309958,58.6946678 30.377625,58.466 C30.445292,58.2373322 30.5491243,58.0390008 30.689125,57.871 C30.8291257,57.7029992 31.0041239,57.5700005 31.214125,57.472 C31.424126,57.3739995 31.6691236,57.325 31.949125,57.325 C32.2291264,57.325 32.4741239,57.3739995 32.684125,57.472 C32.894126,57.5700005 33.0691243,57.7029992 33.209125,57.871 C33.3491257,58.0390008 33.452958,58.2373322 33.520625,58.466 C33.588292,58.6946678 33.622125,58.9419987 33.622125,59.208 C33.622125,59.4740013 33.588292,59.7213322 33.520625,59.95 C33.452958,60.1786678 33.3491257,60.3769992 33.209125,60.545 C33.0691243,60.7130008 32.894126,60.8448329 32.684125,60.9405 C32.4741239,61.0361671 32.2291264,61.084 31.949125,61.084 Z M31.949125,60.531 C32.2711266,60.531 32.5091242,60.4143345 32.663125,60.181 C32.8171258,59.9476655 32.894125,59.6233354 32.894125,59.208 C32.894125,58.7926646 32.8171258,58.4695012 32.663125,58.2385 C32.5091242,58.0074988 32.2711266,57.892 31.949125,57.892 C31.6271234,57.892 31.3902924,58.0074988 31.238625,58.2385 C31.0869576,58.4695012 31.011125,58.7926646 31.011125,59.208 C31.011125,59.6233354 31.0869576,59.9476655 31.238625,60.181 C31.3902924,60.4143345 31.6271234,60.531 31.949125,60.531 Z M36.6595416,59.313 C36.5895413,59.3036666 36.5008755,59.2943334 36.3935416,59.285 C36.2862078,59.2756666 36.1952087,59.271 36.1205416,59.271 C35.8312069,59.271 35.6107091,59.3246661 35.4590416,59.432 C35.3073742,59.5393339 35.2315416,59.7026656 35.2315416,59.922 C35.2315416,60.0620007 35.257208,60.1716663 35.3085416,60.251 C35.3598752,60.3303337 35.4240413,60.3909998 35.5010416,60.433 C35.578042,60.4750002 35.6632078,60.5006666 35.7565416,60.51 C35.8498754,60.5193334 35.9385412,60.524 36.0225416,60.524 C36.1298755,60.524 36.2407077,60.5181667 36.3550416,60.5065 C36.4693755,60.4948333 36.5708745,60.4773335 36.6595416,60.454 L36.6595416,59.313 Z M36.6595416,58.634 C36.6595416,58.3586653 36.5895423,58.1673339 36.4495416,58.06 C36.3095409,57.9526661 36.106543,57.899 35.8405416,57.899 C35.6772075,57.899 35.5243757,57.9118332 35.3820416,57.9375 C35.2397076,57.9631668 35.1008756,57.9969998 34.9655416,58.039 C34.8768745,57.8849992 34.8325416,57.7006677 34.8325416,57.486 C34.9912091,57.4346664 35.1662073,57.3950001 35.3575416,57.367 C35.5488759,57.3389999 35.7332074,57.325 35.9105416,57.325 C36.3772106,57.325 36.7318738,57.4311656 36.9745416,57.6435 C37.2172095,57.8558344 37.3385416,58.195331 37.3385416,58.662 L37.3385416,60.909 C37.1752075,60.9463335 36.9768761,60.9848331 36.7435416,61.0245 C36.5102071,61.0641669 36.2722095,61.084 36.0295416,61.084 C35.8008738,61.084 35.5943759,61.0630002 35.4100416,61.021 C35.2257074,60.9789998 35.0693756,60.9113338 34.9410416,60.818 C34.8127077,60.7246662 34.713542,60.6056674 34.6435416,60.461 C34.5735413,60.3163326 34.5385416,60.1413344 34.5385416,59.936 C34.5385416,59.7353323 34.5793746,59.5591674 34.6610416,59.4075 C34.7427087,59.2558326 34.8535409,59.1298338 34.9935416,59.0295 C35.1335423,58.9291662 35.2945407,58.8545002 35.4765416,58.8055 C35.6585425,58.7564998 35.849874,58.732 36.0505416,58.732 C36.1998757,58.732 36.3223745,58.7355 36.4180416,58.7425 C36.5137088,58.7495 36.594208,58.7576666 36.6595416,58.767 L36.6595416,58.634 Z M40.9149583,55.869 C40.9662919,55.8596666 41.0246246,55.8526667 41.0899583,55.848 C41.155292,55.8433333 41.2112914,55.841 41.2579583,55.841 C41.3092919,55.841 41.366458,55.8433333 41.4294583,55.848 C41.4924586,55.8526667 41.5496247,55.8596666 41.6009583,55.869 L41.6009583,60.902 C41.4236241,60.9533336 41.2252927,60.9964998 41.0059583,61.0315 C40.7866239,61.0665002 40.5416263,61.084 40.2709583,61.084 C40.018957,61.084 39.7797928,61.0525003 39.5534583,60.9895 C39.3271238,60.9264997 39.1299591,60.8226674 38.9619583,60.678 C38.7939575,60.5333326 38.6609588,60.3466678 38.5629583,60.118 C38.4649578,59.8893322 38.4159583,59.6070017 38.4159583,59.271 C38.4159583,58.9816652 38.4591245,58.7180012 38.5454583,58.48 C38.6317921,58.2419988 38.7542908,58.0378342 38.9129583,57.8675 C39.0716258,57.6971658 39.2617905,57.5653338 39.4834583,57.472 C39.7051261,57.3786662 39.9512903,57.332 40.2219583,57.332 C40.3432922,57.332 40.465791,57.3413332 40.5894583,57.36 C40.7131256,57.3786668 40.8216245,57.4019999 40.9149583,57.43 L40.9149583,55.869 Z M40.9149583,58.018 C40.8216245,57.9806665 40.7212922,57.9526668 40.6139583,57.934 C40.5066244,57.9153332 40.3899589,57.906 40.2639583,57.906 C40.072624,57.906 39.906959,57.9409997 39.7669583,58.011 C39.6269576,58.0810003 39.5114587,58.1766661 39.4204583,58.298 C39.3294578,58.4193339 39.2617918,58.5628325 39.2174583,58.7285 C39.1731247,58.8941675 39.1509583,59.074999 39.1509583,59.271 C39.155625,59.7143356 39.2606239,60.0316657 39.4659583,60.223 C39.6712927,60.4143343 39.9512899,60.51 40.3059583,60.51 C40.4272922,60.51 40.5392911,60.5041667 40.6419583,60.4925 C40.7446255,60.4808333 40.8356246,60.4633335 40.9149583,60.44 L40.9149583,58.018 Z M44.8337916,57.409 C44.8851252,57.3996666 44.9352914,57.3926667 44.9842916,57.388 C45.0332919,57.3833333 45.083458,57.381 45.1347916,57.381 C45.1861252,57.381 45.2339581,57.3833333 45.2782916,57.388 C45.3226252,57.3926667 45.370458,57.3996666 45.4217916,57.409 C45.4357917,57.4790003 45.4497915,57.5711661 45.4637916,57.6855 C45.4777917,57.7998339 45.4847916,57.8966663 45.4847916,57.976 C45.5267918,57.8919996 45.5792913,57.8115004 45.6422916,57.7345 C45.7052919,57.6574996 45.7799578,57.588667 45.8662916,57.528 C45.9526254,57.467333 46.051791,57.4183335 46.1637916,57.381 C46.2757922,57.3436665 46.3994576,57.325 46.5347916,57.325 C46.814793,57.325 47.0306242,57.3821661 47.1822916,57.4965 C47.333959,57.6108339 47.4494579,57.7706656 47.5287916,57.976 C47.5754585,57.8966663 47.6326246,57.8173337 47.7002916,57.738 C47.7679586,57.6586663 47.8437912,57.588667 47.9277916,57.528 C48.011792,57.467333 48.1074577,57.4183335 48.2147916,57.381 C48.3221255,57.3436665 48.4434576,57.325 48.5787916,57.325 C48.994127,57.325 49.2962907,57.4416655 49.4852916,57.675 C49.6742926,57.9083345 49.7687916,58.2536644 49.7687916,58.711 L49.7687916,61 C49.717458,61.0093334 49.6591253,61.0163333 49.5937916,61.021 C49.5284579,61.0256667 49.4701252,61.028 49.4187916,61.028 C49.367458,61.028 49.3102919,61.0256667 49.2472916,61.021 C49.1842913,61.0163333 49.1271252,61.0093334 49.0757916,61 L49.0757916,58.914 C49.0757916,58.5919984 49.0267921,58.3505008 48.9287916,58.1895 C48.8307911,58.0284992 48.6697927,57.948 48.4457916,57.948 C48.2077904,57.948 48.0152923,58.0343325 47.8682916,58.207 C47.7212909,58.3796675 47.6477916,58.6339983 47.6477916,58.97 L47.6477916,61 C47.596458,61.0093334 47.5392919,61.0163333 47.4762916,61.021 C47.4132913,61.0256667 47.3561252,61.028 47.3047916,61.028 C47.253458,61.028 47.1962919,61.0256667 47.1332916,61.021 C47.0702913,61.0163333 47.0131252,61.0093334 46.9617916,61 L46.9617916,58.865 C46.9617916,58.5523318 46.9151254,58.3178341 46.8217916,58.1615 C46.7284578,58.0051659 46.579126,57.927 46.3737916,57.927 C46.2571244,57.927 46.1474588,57.9526664 46.0447916,58.004 C45.9421244,58.0553336 45.852292,58.1323328 45.7752916,58.235 C45.6982912,58.3376672 45.6376252,58.4671659 45.5932916,58.6235 C45.5489581,58.7798341 45.5267916,58.9606656 45.5267916,59.166 L45.5267916,61 C45.475458,61.0093334 45.4182919,61.0163333 45.3552916,61.021 C45.2922913,61.0256667 45.2351252,61.028 45.1837916,61.028 C45.132458,61.028 45.0741253,61.0256667 45.0087916,61.021 C44.9434579,61.0163333 44.8851252,61.0093334 44.8337916,61 L44.8337916,57.409 Z M52.9392083,59.313 C52.8692079,59.3036666 52.7805421,59.2943334 52.6732083,59.285 C52.5658744,59.2756666 52.4748753,59.271 52.4002083,59.271 C52.1108735,59.271 51.8903757,59.3246661 51.7387083,59.432 C51.5870408,59.5393339 51.5112083,59.7026656 51.5112083,59.922 C51.5112083,60.0620007 51.5368747,60.1716663 51.5882083,60.251 C51.6395419,60.3303337 51.7037079,60.3909998 51.7807083,60.433 C51.8577086,60.4750002 51.9428745,60.5006666 52.0362083,60.51 C52.1295421,60.5193334 52.2182078,60.524 52.3022083,60.524 C52.4095421,60.524 52.5203744,60.5181667 52.6347083,60.5065 C52.7490422,60.4948333 52.8505412,60.4773335 52.9392083,60.454 L52.9392083,59.313 Z M52.9392083,58.634 C52.9392083,58.3586653 52.869209,58.1673339 52.7292083,58.06 C52.5892076,57.9526661 52.3862096,57.899 52.1202083,57.899 C51.9568741,57.899 51.8040423,57.9118332 51.6617083,57.9375 C51.5193742,57.9631668 51.3805423,57.9969998 51.2452083,58.039 C51.1565412,57.8849992 51.1122083,57.7006677 51.1122083,57.486 C51.2708757,57.4346664 51.445874,57.3950001 51.6372083,57.367 C51.8285426,57.3389999 52.012874,57.325 52.1902083,57.325 C52.6568773,57.325 53.0115404,57.4311656 53.2542083,57.6435 C53.4968761,57.8558344 53.6182083,58.195331 53.6182083,58.662 L53.6182083,60.909 C53.4548741,60.9463335 53.2565428,60.9848331 53.0232083,61.0245 C52.7898738,61.0641669 52.5518761,61.084 52.3092083,61.084 C52.0805405,61.084 51.8740425,61.0630002 51.6897083,61.021 C51.505374,60.9789998 51.3490422,60.9113338 51.2207083,60.818 C51.0923743,60.7246662 50.9932086,60.6056674 50.9232083,60.461 C50.8532079,60.3163326 50.8182083,60.1413344 50.8182083,59.936 C50.8182083,59.7353323 50.8590412,59.5591674 50.9407083,59.4075 C51.0223753,59.2558326 51.1332076,59.1298338 51.2732083,59.0295 C51.413209,58.9291662 51.5742074,58.8545002 51.7562083,58.8055 C51.9382092,58.7564998 52.1295406,58.732 52.3302083,58.732 C52.4795423,58.732 52.6020411,58.7355 52.6977083,58.7425 C52.7933754,58.7495 52.8738746,58.7576666 52.9392083,58.767 L52.9392083,58.634 Z M54.8846249,57.409 C54.9312918,57.3996666 54.9791247,57.3926667 55.0281249,57.388 C55.0771252,57.3833333 55.1272913,57.381 55.1786249,57.381 C55.2252918,57.381 55.2742913,57.3833333 55.3256249,57.388 C55.3769585,57.3926667 55.425958,57.3996666 55.4726249,57.409 C55.4772916,57.4183334 55.4831249,57.4474998 55.4901249,57.4965 C55.497125,57.5455002 55.5041249,57.5979997 55.5111249,57.654 C55.518125,57.7100003 55.5251249,57.7636664 55.5321249,57.815 C55.539125,57.8663336 55.5426249,57.8989999 55.5426249,57.913 C55.5892918,57.838333 55.6452913,57.7660003 55.7106249,57.696 C55.7759586,57.6259996 55.8541245,57.5630003 55.9451249,57.507 C56.0361254,57.4509997 56.138791,57.4066668 56.2531249,57.374 C56.3674588,57.3413332 56.4946242,57.325 56.6346249,57.325 C56.844626,57.325 57.0394574,57.3599996 57.2191249,57.43 C57.3987925,57.5000004 57.5527909,57.6084993 57.6811249,57.7555 C57.8094589,57.9025007 57.9097912,58.0891655 57.9821249,58.3155 C58.0544586,58.5418345 58.0906249,58.8089985 58.0906249,59.117 C58.0906249,59.7330031 57.9237933,60.2148316 57.5901249,60.5625 C57.2564566,60.9101684 56.7839613,61.084 56.1726249,61.084 C56.0699577,61.084 55.9649588,61.0770001 55.8576249,61.063 C55.750291,61.0489999 55.6569586,61.0303335 55.5776249,61.007 L55.5776249,62.652 C55.5216246,62.6613334 55.4621252,62.6683333 55.3991249,62.673 C55.3361246,62.6776667 55.2789585,62.68 55.2276249,62.68 C55.1762913,62.68 55.1191252,62.6776667 55.0561249,62.673 C54.9931246,62.6683333 54.9359585,62.6613334 54.8846249,62.652 L54.8846249,57.409 Z M55.5776249,60.412 C55.666292,60.4446668 55.7572911,60.4679999 55.8506249,60.482 C55.9439587,60.4960001 56.0652908,60.503 56.2146249,60.503 C56.3826258,60.503 56.5366242,60.4761669 56.6766249,60.4225 C56.8166256,60.3688331 56.9367911,60.2860006 57.0371249,60.174 C57.1374588,60.0619994 57.2167913,59.9208342 57.2751249,59.7505 C57.3334585,59.5801658 57.3626249,59.3783345 57.3626249,59.145 C57.3626249,58.7716648 57.2937923,58.4753344 57.1561249,58.256 C57.0184576,58.0366656 56.7932931,57.927 56.4806249,57.927 C56.3639577,57.927 56.2519588,57.9479998 56.1446249,57.99 C56.037291,58.0320002 55.9416253,58.0949996 55.8576249,58.179 C55.7736245,58.2630004 55.7059585,58.369166 55.6546249,58.4975 C55.6032913,58.625834 55.5776249,58.7786658 55.5776249,58.956 L55.5776249,60.412 Z"/>
    <g stroke="#919191" stroke-linecap="round" stroke-linejoin="round" stroke-width="2" transform="translate(22)">
      <path d="M15.4512939,7.4512949 C15.4512939,11.5665302 8,20.5498867 8,20.5498867 C8,20.5498867 0.5487061,11.5665302 0.5487061,7.4512949 C0.5487061,3.3360596 3.8847637,0 8,0 C12.1152363,0 15.4512939,3.3360586 15.4512939,7.4512949 Z"/>
      <circle cx="8" cy="7.451" r="3.216"/>
    </g>
  </g>
</svg>
